<?xml version="1.0" encoding="UTF-8" standalone="no"?>
<!-- Created with Inkscape (http://www.inkscape.org/) -->

<svg
   width="1024"
   height="1024"
   viewBox="0 0 1024 1024"
   version="1.1"
   id="svg1"
   xml:space="preserve"
   sodipodi:docname="lime.svg"
   inkscape:version="1.4 (e7c3feb100, 2024-10-09)"
   xmlns:inkscape="http://www.inkscape.org/namespaces/inkscape"
   xmlns:sodipodi="http://sodipodi.sourceforge.net/DTD/sodipodi-0.dtd"
   xmlns="http://www.w3.org/2000/svg"
   xmlns:svg="http://www.w3.org/2000/svg"><sodipodi:namedview
     id="namedview1"
     pagecolor="#505050"
     bordercolor="#eeeeee"
     borderopacity="1"
     inkscape:showpageshadow="0"
     inkscape:pageopacity="0"
     inkscape:pagecheckerboard="0"
     inkscape:deskcolor="#505050"
     showguides="true"
     inkscape:zoom="0.49159114"
     inkscape:cx="673.32377"
     inkscape:cy="507.53559"
     inkscape:window-width="1920"
     inkscape:window-height="972"
     inkscape:window-x="0"
     inkscape:window-y="36"
     inkscape:window-maximized="1"
     inkscape:current-layer="svg1" /><defs
     id="defs1" /><g
     id="g19"
     inkscape:transform-center-x="77.916445"
     inkscape:transform-center-y="77.91644"
     transform="matrix(0.65148841,0.65148841,-0.65148841,0.65148841,580.84935,-280.92638)"><path
       id="ellipse177"
       style="fill:#91de68;fill-opacity:1;stroke-width:9.50794"
       d="m 1111.4199,548.75116 c 0,145.53788 -58.5479,285.1149 -162.76372,388.02572 -104.21585,102.91082 -245.56287,160.72552 -392.94634,160.72552 -147.38347,0 -288.7305,-57.8147 -392.94635,-160.72551 C 58.54763,833.86607 -2.3339744e-4,694.28904 -2.4414063e-4,548.75116 Z"
       sodipodi:nodetypes="cssscc" /><path
       id="ellipse188"
       style="fill:#fdf6bf;fill-opacity:1;stroke-width:9.16032"
       d="m 1091.1053,548.75122 c 0,140.21756 -56.4076,274.69218 -156.81368,373.84096 -100.4061,99.14882 -236.58601,154.85002 -378.58169,154.85002 -141.99567,0 -278.17557,-55.7012 -378.58167,-154.85003 C 76.722155,823.44338 20.314598,688.96877 20.314603,548.75122 Z"
       sodipodi:nodetypes="cssscc" /><g
       id="g16"
       inkscape:transform-center-x="-1.7579943e-05"
       inkscape:transform-center-y="261.06239"
       transform="rotate(-45,555.70984,548.75116)"><path
         style="fill:none;fill-opacity:1"
         d="m 427.7096,1060.7515 128.0001,-447.457 128,447.4569 z"
         id="path189" /><path
         style="fill:#c1de68;fill-opacity:1;stroke:none;stroke-width:1.00157;stroke-dasharray:none;stroke-opacity:1"
         d="m 500.5885,1060.7515 c 0,0 -36.4395,0 -49.6482,-17.517 -13.2087,-17.517 -3.1868,-52.5513 -3.1868,-52.5513 L 539.064,671.4844 c 0,0 8.323,-29.0949 16.6458,-29.095 8.3229,0 16.6458,29.0949 16.6458,29.0949 l 91.3103,319.1988 c 0,0 10.0219,35.0343 -3.1868,52.5513 -13.2087,17.517 -49.6483,17.517 -49.6483,17.517 z"
         id="path190"
         inkscape:transform-center-x="0.00026093749"
         inkscape:transform-center-y="302.81922" /><path
         style="fill:#ccde68;fill-opacity:1;stroke:none;stroke-width:1.00157;stroke-dasharray:none;stroke-opacity:1"
         d="m 763.9734,1019.7171 c 0,0 -31.5576,18.2197 -51.7551,9.6539 -20.1976,-8.5658 -29.0355,-43.9174 -29.0355,-43.9174 L 602.6606,663.3641 c 0,0 -7.3396,-29.3584 -0.1319,-33.5199 7.2079,-4.1614 28.9632,16.874 28.9632,16.874 l 238.6764,230.7792 c 0,0 26.1964,25.3296 23.5158,47.1041 -2.6805,21.7745 -34.2382,39.9943 -34.2382,39.9943 z"
         id="path191"
         inkscape:transform-center-x="-190.90791"
         inkscape:transform-center-y="281.72904" /><path
         style="fill:#91de68;fill-opacity:1;stroke:none;stroke-width:1.00157;stroke-dasharray:none;stroke-opacity:1"
         d="m 139.8652,245.015 c 0,0 18.2197,-31.5573 39.9942,-34.238 21.7745,-2.6807 47.1041,23.5159 47.1041,23.5159 l 230.779,238.6765 c 0,0 21.0355,21.7555 16.8742,28.9633 -4.1614,7.2077 -33.5199,-0.1319 -33.5199,-0.1319 L 119.0075,421.2784 c 0,0 -35.3515,-8.8378 -43.9174,-29.0353 -8.5659,-20.1977 9.654,-51.7552 9.654,-51.7552 z"
         id="path197"
         inkscape:transform-center-x="281.72925"
         inkscape:transform-center-y="-190.90786" /><path
         style="fill:#9dde68;fill-opacity:1;stroke:none;stroke-width:1.00157;stroke-dasharray:none;stroke-opacity:1"
         d="m 43.7096,493.6302 c 0,0 0,-36.4393 17.5169,-49.6481 17.517,-13.2088 52.5513,-3.1867 52.5513,-3.1867 l 319.1988,91.3104 c 0,0 29.095,8.3231 29.0951,16.6459 0,8.3227 -29.095,16.6457 -29.095,16.6457 L 113.778,656.7076 c 0,0 -35.0342,10.022 -52.5513,-3.1866 -17.5171,-13.2088 -17.517,-49.6483 -17.517,-49.6483 z"
         id="path198"
         inkscape:transform-center-x="302.81931"
         inkscape:transform-center-y="0.00026031941" /><path
         style="fill:#a9de68;fill-opacity:1;stroke:none;stroke-width:1.00157;stroke-dasharray:none;stroke-opacity:1"
         d="m 84.744,757.0151 c 0,0 -18.2197,-31.5574 -9.654,-51.755 8.5658,-20.1977 43.9174,-29.0354 43.9174,-29.0354 l 322.0895,-80.5223 c 0,0 29.3585,-7.3395 33.52,-0.1318 4.1614,7.2077 -16.8741,28.9631 -16.8741,28.9631 L 226.9637,863.21 c 0,0 -25.3295,26.1964 -47.1041,23.516 -21.7746,-2.6806 -39.9943,-34.2382 -39.9943,-34.2382 z"
         id="path199"
         inkscape:transform-center-x="281.72915"
         inkscape:transform-center-y="190.90852" /><path
         style="fill:#b5de68;fill-opacity:1;stroke:none;stroke-width:1.00157;stroke-dasharray:none;stroke-opacity:1"
         d="m 251.9732,964.5959 c 0,0 -31.5574,-18.2197 -34.2381,-39.9942 -2.6806,-21.7746 23.5159,-47.1041 23.5159,-47.1041 L 479.9276,646.7185 c 0,0 21.7554,-21.0354 28.9632,-16.8741 7.2078,4.1613 -0.1318,33.5198 -0.1318,33.5198 l -80.5224,322.0893 c 0,0 -8.8378,35.3515 -29.0354,43.9175 -20.1976,8.5658 -51.7552,-9.654 -51.7552,-9.654 z"
         id="path200"
         inkscape:transform-center-x="190.90845"
         inkscape:transform-center-y="281.72914" /></g></g></svg>
